#!OML:ASF I:\Actors\actors\Patient Classification 1\Patient 1\Session 1\Subject1.ASF
:FULLY-SPECIFIED
:DEGREES
552
root -0.470387 17.5348 7.52323 5.52806 -4.37433 -7.51735
lowerback 1.9295 1.56292 4.90434
upperback -7.36006 2.45175 0.425049
thorax -8.65887 0.878326 -2.51803
lowerneck -12.1196 1.46534 4.66562
upperneck 35.0846 0.864894 0.134903
head 14.009 1.01694 -0.635788
rclavicle -7.85199e-015 -1.90833e-014
rhumerus 8.76207 66.9813 -59.9766
rradius 100.19
rwrist 42.1503
rhand -23.8333 -29.0406
rfingers 7.12502
rthumb 2.63837 -1139
lclavicle -7.85199e-015 -1.90833e-014
lhumerus -45.0837 -30.9394 100.936
lradius 104.362
lwrist 13.0591
lhand -25.0946 -4.35944
lfingers 7.12502
lthumb 1.42016 25.6156
rfemur -0.615054 22.8502 25.893
rtibia 3.01206
rfoot -10.8764 -18.8567
rtoes -1.80518
lfemur 12.1707 -42.7765 -20.2349
ltibia -4.62492
lfoot -25.8164 54.4312
ltoes 16.0933
553
root -0.469795 17.535 7.52365 5.53192 -4.32701 -7.54141
lowerback 1.90494 1.55462 4.94481
upperback -7.30544 2.43831 0.406195
thorax -8.58332 0.871221 -2.55749
lowerneck -12.2175 1.53488 4.76594
upperneck 35.1185 0.950932 0.0924823
head 14.0507 1.06281 -0.65665
rclavicle 2.05742e-014 2.3059e-014
rhumerus 8.06488 67.1877 -60.8092
rradius 100.329
rwrist 41.6485
rhand -22.6293 -29.6162
rfingers 7.12502
rthumb 3.8011 -1139.56
lclavicle 2.05742e-014 2.3059e-014
lhumerus -45.0451 -30.8828 100.815
lradius 104.155
lwrist 12.9005
lhand -24.9648 -4.59206
lfingers 7.12502
lthumb 1.54554 25.3821
rfemur -0.627127 22.8314 25.9208
rtibia 3.03434
rfoot -10.8924 -18.8745
rtoes -1.79671
lfemur 12.1332 -42.73 -20.1638
ltibia -4.63745
lfoot -25.8027 54.3446
ltoes 16.1407
554
root -0.470085 17.5349 7.52115 5.53706 -4.27835 -7.5238
lowerback 1.94456 1.53787 4.88467
upperback -7.27239 2.41334 0.407143
thorax -8.57399 0.863938 -2.52163
lowerneck -12.1004 1.61889 4.94155
upperneck 34.93 1.08314 -0.0337616
head 13.9459 1.12388 -0.718846
rclavicle 9.64106e-015 -7.15625e-015
rhumerus 7.33074 67.3753 -61.687
rradius 100.436
rwrist 41.1797
rhand -21.4244 -30.1007
rfingers 7.12502
rthumb 4.96453 -1140.02
lclavicle 9.64106e-015 -7.15625e-015
lhumerus -45.0658 -30.8241 100.737
lradius 104.001
lwrist 12.3658
lhand -24.8924 -4.82206
lfingers 7.12502
lthumb 1.61551 25.1516
rfemur -0.668606 22.7969 25.8911
rtibia 3.07092
rfoot -10.9094 -18.8778
rtoes -1.73323
lfemur 12.0305 -42.6403 -20.0921
ltibia -4.61444
lfoot -25.6876 54.2155
ltoes 16.0354
555
root -0.47011 17.5346 7.52052 5.53983 -4.26448 -7.50799
lowerback 1.9642 1.53709 4.81195
upperback -7.23816 2.40841 0.417503
thorax -8.55072 0.868155 -2.4698
lowerneck -12.0898 1.67013 5.02373
upperneck 34.8597 1.16007 -0.0928131
head 13.9157 1.15944 -0.745278
rclavicle -5.36719e-015 7.95139e-016
rhumerus 6.43486 67.4908 -62.7141
rradius 100.5
rwrist 40.7614
rhand -20.237 -30.4218
rfingers 7.12502
rthumb 6.11099 -1140.31
lclavicle -5.36719e-015 7.95139e-016
lhumerus -45.1549 -30.8381 100.718
lradius 103.877
lwrist 11.5706
lhand -24.8874 -4.95672
lfingers 7.12502
lthumb 1.62035 25.0169
rfemur -0.675447 22.7831 25.8688
rtibia 3.07036
rfoot -10.908 -18.8779
rtoes -1.61531
lfemur 11.9996 -42.6197 -20.0889
ltibia -4.60341
lfoot -25.6184 54.2003
ltoes 15.9362
556
root -0.469369 17.5345 7.52297 5.55327 -4.28441 -7.54325
lowerback 1.92911 1.55929 4.78378
upperback -7.20778 2.43611 0.457093
thorax -8.49694 0.887335 -2.41288
lowerneck -12.1093 1.69105 5.00216
upperneck 34.8586 1.19214 -0.0794396
head 13.9202 1.17265 -0.730985
rclavicle -9.64106e-015 -1.19271e-014
rhumerus 5.29766 67.5448 -63.9299
rradius 100.367
rwrist 40.3557
rhand -19.0282 -31.1125
rfingers 7.12502
rthumb 7.27789 -1140.97
lclavicle -9.64106e-015 -1.19271e-014
lhumerus -45.2664 -30.9026 100.79
lradius 103.742
lwrist 10.7936
lhand -24.9132 -5.19977
lfingers 7.12502
lthumb 1.59544 24.774
rfemur -0.668238 22.7671 25.9047
rtibia 3.05104
rfoot -10.9204 -18.8525
rtoes -1.72821
lfemur 12.0485 -42.679 -20.0984
ltibia -4.61929
lfoot -25.6842 54.2755
ltoes 16.0186
557
root -0.469284 17.5345 7.52538 5.59134 -4.322 -7.59375
lowerback 1.90984 1.58447 4.77809
upperback -7.2167 2.47157 0.495671
thorax -8.49453 0.906671 -2.37149
lowerneck -12.0408 1.6924 4.96045
upperneck 34.8154 1.20256 -0.0556263
head 13.885 1.17445 -0.712903
rclavicle 3.18055e-015 -3.4191e-014
rhumerus 3.72068 67.5585 -65.6044
rradius 99.8491
rwrist 39.9457
rhand -17.5873 -32.8755
rfingers 7.12502
rthumb 8.66863 -1142.68
lclavicle 3.18055e-015 -3.4191e-014
lhumerus -45.4291 -30.9282 100.875
lradius 103.612
lwrist 10.24
lhand -24.879 -5.5086
lfingers 7.12502
lthumb 1.6284 24.4649
rfemur -0.700714 22.786 25.9505
rtibia 3.05555
rfoot -10.9317 -18.8337
rtoes -1.77184
lfemur 12.0778 -42.7627 -20.0717
ltibia -4.64104
lfoot -25.768 54.377
ltoes 16.0728
558
root -0.470324 17.5349 7.52733 5.6411 -4.36805 -7.59017
lowerback 1.90394 1.60226 4.77429
upperback -7.23866 2.49353 0.466539
thorax -8.51235 0.915729 -2.4022
lowerneck -11.9436 1.70566 5.09567
upperneck 34.7229 1.22134 -0.137757
head 13.8248 1.18796 -0.767413
rclavicle -1.98785e-014 1.43125e-014
rhumerus 1.92944 67.6632 -67.6353
rradius 99.0647
rwrist 38.4555
rhand -16.4195 -35.2481
rfingers 7.12502
rthumb 9.7954 -1145
lclavicle -1.98785e-014 1.43125e-014
lhumerus -45.609 -30.9481 100.843
lradius 103.507
lwrist 9.96698
lhand -24.8904 -5.71274
lfingers 7.12502
lthumb 1.61739 24.2609
rfemur -0.742358 22.8706 25.9333
rtibia 3.03943
rfoot -10.8823 -18.8711
rtoes -1.8099
lfemur 12.0682 -42.8468 -20.0734
ltibia -4.65911
lfoot -25.7773 54.4954
ltoes 15.9858
559
root -0.470868 17.5356 7.52979 5.66849 -4.42406 -7.60035
lowerback 1.9822 1.60844 4.78571
upperback -7.29294 2.50731 0.439075
thorax -8.6157 0.916768 -2.44261
lowerneck -11.884 1.72902 5.25259
upperneck 34.7173 1.24394 -0.213803
head 13.8129 1.20811 -0.822397
rclavicle -2.0276e-014 -4.77083e-015
rhumerus 0.179849 67.8798 -69.7798
rradius 99.3068
rwrist 31.3078
rhand -14.1373 -37.544
rfingers 7.12502
rthumb 11.9967 -1147.18
lclavicle -2.0276e-014 -4.77083e-015
lhumerus -45.8747 -30.9228 100.802
lradius 103.462
lwrist 9.95256
lhand -25.0289 -5.78303
lfingers 7.12502
lthumb 1.48368 24.1916
rfemur -0.744226 22.9455 25.9402
rtibia 3.00117
rfoot -10.8318 -18.8906
rtoes -2.00715
lfemur 12.0654 -42.8451 -20.0547
ltibia -4.67684
lfoot -25.7953 54.5421
ltoes 15.918
560
root -0.470501 17.5357 7.53289 5.66921 -4.50445 -7.64805
lowerback 2.11868 1.60412 4.82141
upperback -7.36913 2.51507 0.440203
thorax -8.77888 0.912136 -2.4684
lowerneck -11.8316 1.76228 5.25728
upperneck 34.7787 1.26542 -0.129799
head 13.8297 1.23022 -0.78656
rclavicle 6.85807e-015 1.90833e-014
rhumerus -1.58153 67.8961 -71.9973
rradius 99.6927
rwrist 23.3762
rhand -12.0169 -38.851
rfingers 7.12502
rthumb 14.0408 -1148.36
lclavicle 6.85807e-015 1.90833e-014
lhumerus -46.2249 -30.8051 100.786
lradius 103.505
lwrist 9.95971
lhand -25.232 -5.81368
lfingers 7.12502
lthumb 1.28751 24.1622
rfemur -0.712355 22.9813 25.9985
rtibia 2.97003
rfoot -10.8523 -18.8546
rtoes -2.25127
lfemur 12.1082 -42.7811 -20.0233
ltibia -4.69774
lfoot -25.9358 54.5472
ltoes 16.0363
561
root -0.470199 17.5356 7.53483 5.67598 -4.59132 -7.65676
lowerback 2.19681 1.61739 4.94947
upperback -7.41216 2.54055 0.342419
thorax -8.86259 0.908238 -2.64929
lowerneck -11.779 1.77137 5.24214
upperneck 34.7791 1.22817 0.0348745
head 13.8168 1.23371 -0.723773
rclavicle 4.67144e-015 -1.59028e-015
rhumerus -3.41181 68.3879 -74.2887
rradius 100.153
rwrist 16.9923
rhand -12.4516 -41.6269
rfingers 7.12502
rthumb 13.6218 -1151.16
lclavicle 4.67144e-015 -1.59028e-015
lhumerus -46.4762 -30.7703 100.657
lradius 103.573
lwrist 9.8265
lhand -25.412 -5.88962
lfingers 7.12502
lthumb 1.11365 24.0872
rfemur -0.696716 23.0128 26.0046
rtibia 2.9293
rfoot -10.8735 -18.8176
rtoes -2.29146
lfemur 12.1593 -42.7626 -20.0496
ltibia -4.72499
lfoot -26.1001 54.5914
ltoes 16.3275
562
root -0.47043 17.5355 7.53591 5.69238 -4.68835 -7.63818
lowerback 2.29269 1.65462 5.10924
upperback -7.45656 2.59763 0.188912
thorax -8.95218 0.914765 -2.91084
lowerneck -11.7754 1.73409 5.30023
upperneck 34.804 1.13993 0.0817274
head 13.8255 1.20914 -0.728567
rclavicle -2.03754e-014 -1.82882e-014
rhumerus -5.08883 68.2567 -76.4407
rradius 100.241
rwrist 16.1095
rhand -11.448 -43.375
rfingers 7.12502
rthumb 14.5889 -1152.84
lclavicle -2.03754e-014 -1.82882e-014
lhumerus -46.6366 -30.8155 100.504
lradius 103.645
lwrist 9.71372
lhand -25.5172 -5.94958
lfingers 7.12502
lthumb 1.01202 24.0278
rfemur -0.706137 23.022 25.9738
rtibia 2.91054
rfoot -10.8325 -18.7529
rtoes -2.37807
lfemur 12.2309 -42.8215 -20.1332
ltibia -4.7562
lfoot -26.2662 54.7067
ltoes 16.5295
563
root -0.471109 17.5348 7.53727 5.71369 -4.79443 -7.62804
lowerback 2.50803 1.68769 5.19341
upperback -7.57268 2.65828 0.0862164
thorax -9.19638 0.923962 -3.08365
lowerneck -11.7937 1.70194 5.36061
upperneck 34.9231 1.07261 0.0826624
head 13.8822 1.18974 -0.748804
rclavicle 8.34896e-015 1.35174e-014
rhumerus -6.92656 68.1753 -78.6396
rradius 100.132
rwrist 16.6441
rhand -10.7804 -44.6491
rfingers 7.12502
rthumb 15.232 -1154.07
lclavicle 8.34896e-015 1.35174e-014
lhumerus -46.8339 -30.782 100.457
lradius 103.718
lwrist 9.7216
lhand -25.5376 -5.9995
lfingers 7.12502
lthumb 0.992379 23.9779
rfemur -0.734407 22.955 25.9432
rtibia 2.92065
rfoot -10.7669 -18.6127
rtoes -2.87997
lfemur 12.2917 -42.8996 -20.2176
ltibia -4.74492
lfoot -26.5892 54.815
ltoes 16.6943
564
root -0.471744 17.5334 7.53747 5.7369 -4.88359 -7.60127
lowerback 2.67418 1.71027 5.17102
upperback -7.66811 2.69791 0.0447154
thorax -9.39671 0.934811 -3.12817
lowerneck -11.8004 1.68606 5.3599
upperneck 35.0036 1.03708 0.112619
head 13.9189 1.17953 -0.74192
rclavicle 1.96797e-014 -4.77083e-015
rhumerus -8.61916 68.1683 -80.5972
rradius 100.064
rwrist 16.512
rhand -9.86834 -46.3038
rfingers 7.12502
rthumb 16.1104 -1155.65
lclavicle 1.96797e-014 -4.77083e-015
lhumerus -46.9345 -30.6702 100.461
lradius 103.782
lwrist 9.78691
lhand -25.5185 -5.99635
lfingers 7.12502
lthumb 1.0108 23.981
rfemur -0.776133 22.9127 25.8836
rtibia 2.93054
rfoot -10.768 -18.4939
rtoes -3.12975
lfemur 12.2714 -42.9115 -20.2667
ltibia -4.68186
lfoot -26.8262 54.8511
ltoes 16.8521
565
root -0.471826 17.5324 7.5361 5.74275 -4.9621 -7.54938
lowerback 2.63992 1.70005 4.57775
upperback -7.6354 2.66398 0.389652
thorax -9.37745 0.978957 -2.4253
lowerneck -11.7971 1.68331 5.11446
upperneck 34.981 1.17165 -0.0896412
head 13.9071 1.17833 -0.76009
rclavicle -2.10712e-014 1.19271e-014
rhumerus -9.53174 68.3748 -81.3326
rradius 100.123
rwrist 14.1937
rhand -9.27557 -47.3827
rfingers 7.12502
rthumb 16.6812 -1156.69
lclavicle -2.10712e-014 1.19271e-014
lhumerus -46.8043 -30.1566 100.828
lradius 103.826
lwrist 9.78744
lhand -25.5368 -5.88872
lfingers 7.12502
lthumb 0.993081 24.0887
rfemur -0.805873 22.9379 25.8016
rtibia 2.9506
rfoot -10.8578 -18.4288
rtoes -2.86571
lfemur 12.2695 -42.9134 -20.3458
ltibia -4.64924
lfoot -27.0337 54.8865
ltoes 17.016
566
root -0.471794 17.532 7.53512 5.74976 -5.04801 -7.55545
lowerback 2.61334 1.66807 3.65409
upperback -7.60761 2.60051 1.0207
thorax -9.39632 1.04465 -1.23418
lowerneck -11.8133 1.68898 4.67449
upperneck 35.0307 1.40185 -0.381123
head 13.9322 1.18248 -0.765319
rclavicle 1.98785e-016 -1.70955e-014
rhumerus -9.93228 69.2325 -81.0946
rradius 100.322
rwrist 11.6322
rhand -9.80426 -49.0614
rfingers 7.12502
rthumb 16.1721 -1158.41
lclavicle 1.98785e-016 -1.70955e-014
lhumerus -46.6949 -29.3493 101.532
lradius 103.852
lwrist 9.6924
lhand -25.6403 -5.78581
lfingers 7.12502
lthumb 0.893106 24.1921
rfemur -0.833459 22.9481 25.7905
rtibia 2.96763
rfoot -10.9194 -18.3468
rtoes -2.70007
lfemur 12.304 -42.9249 -20.3725
ltibia -4.65591
lfoot -27.3776 54.9228
ltoes 17.2099
